<svg width="15" height="16" viewBox="0 0 15 16" fill="none" xmlns="http://www.w3.org/2000/svg">
<path d="M12.398 5.77299L6.39797 11.773C6.34571 11.8254 6.28361 11.867 6.21524 11.8954C6.14687 11.9238 6.07356 11.9384 5.99953 11.9384C5.9255 11.9384 5.85219 11.9238 5.78382 11.8954C5.71545 11.867 5.65335 11.8254 5.60109 11.773L2.97609 9.14799C2.92377 9.09566 2.88226 9.03355 2.85395 8.96518C2.82563 8.89682 2.81105 8.82355 2.81105 8.74955C2.81105 8.67555 2.82563 8.60228 2.85395 8.53392C2.88226 8.46555 2.92377 8.40344 2.97609 8.35111C3.02842 8.29879 3.09053 8.25728 3.1589 8.22897C3.22726 8.20065 3.30053 8.18607 3.37453 8.18607C3.44853 8.18607 3.5218 8.20065 3.59016 8.22897C3.65853 8.25728 3.72064 8.29879 3.77297 8.35111L6 10.5781L11.602 4.97705C11.7077 4.87138 11.851 4.81201 12.0005 4.81201C12.1499 4.81201 12.2932 4.87138 12.3989 4.97705C12.5046 5.08272 12.5639 5.22604 12.5639 5.37549C12.5639 5.52493 12.5046 5.66825 12.3989 5.77393L12.398 5.77299Z" fill="white"/>
</svg>
