<svg width="216" height="14" viewBox="0 0 216 14" fill="none" xmlns="http://www.w3.org/2000/svg">
<path opacity="0.7" d="M0.676136 1.91193V0.818182H8.3125V1.91193H5.1108V11H3.87784V1.91193H0.676136ZM9.26192 11V3.36364H10.3954V4.51705H10.475C10.6142 4.1392 10.8661 3.83262 11.2307 3.5973C11.5953 3.36198 12.0062 3.24432 12.4636 3.24432C12.5498 3.24432 12.6575 3.24597 12.7868 3.24929C12.916 3.2526 13.0138 3.25758 13.0801 3.2642V4.45739C13.0403 4.44744 12.9492 4.43253 12.8067 4.41264C12.6675 4.38944 12.52 4.37784 12.3642 4.37784C11.993 4.37784 11.6615 4.45573 11.3699 4.61151C11.0815 4.76397 10.8528 4.97609 10.6838 5.24787C10.5181 5.51634 10.4352 5.82292 10.4352 6.16761V11H9.26192ZM19.282 7.87784V3.36364H20.4553V11H19.282V9.70739H19.2025C19.0235 10.0952 18.7451 10.425 18.3672 10.6967C17.9894 10.9652 17.5121 11.0994 16.9354 11.0994C16.4581 11.0994 16.0339 10.995 15.6627 10.7862C15.2915 10.5741 14.9998 10.2559 14.7877 9.83168C14.5756 9.40412 14.4695 8.86553 14.4695 8.21591V3.36364H15.6428V8.13636C15.6428 8.69318 15.7986 9.13731 16.1101 9.46875C16.425 9.80019 16.826 9.96591 17.3133 9.96591C17.6049 9.96591 17.9016 9.89134 18.2032 9.74219C18.5081 9.59304 18.7633 9.36435 18.9688 9.05611C19.1776 8.74787 19.282 8.35511 19.282 7.87784ZM28.012 5.07386L26.958 5.37216C26.8917 5.1965 26.7939 5.0258 26.6647 4.86009C26.5387 4.69105 26.3664 4.55185 26.1476 4.44247C25.9289 4.3331 25.6488 4.27841 25.3074 4.27841C24.8401 4.27841 24.4506 4.38613 24.1391 4.60156C23.8308 4.81368 23.6767 5.08381 23.6767 5.41193C23.6767 5.7036 23.7828 5.93395 23.9949 6.10298C24.207 6.27202 24.5385 6.41288 24.9892 6.52557L26.1228 6.80398C26.8055 6.9697 27.3143 7.22325 27.649 7.56463C27.9838 7.9027 28.1512 8.33854 28.1512 8.87216C28.1512 9.30966 28.0252 9.70076 27.7733 10.0455C27.5247 10.3902 27.1767 10.6619 26.7293 10.8608C26.2818 11.0597 25.7615 11.1591 25.1682 11.1591C24.3893 11.1591 23.7447 10.9901 23.2343 10.652C22.7238 10.3139 22.4007 9.82008 22.2648 9.17045L23.3784 8.89205C23.4845 9.30303 23.685 9.61127 23.98 9.81676C24.2783 10.0223 24.6677 10.125 25.1483 10.125C25.6952 10.125 26.1294 10.009 26.4509 9.77699C26.7757 9.54167 26.9381 9.25994 26.9381 8.93182C26.9381 8.66667 26.8453 8.4446 26.6597 8.26562C26.4741 8.08333 26.189 7.94744 25.8046 7.85795L24.5318 7.55966C23.8325 7.39394 23.3188 7.13707 22.9907 6.78906C22.6658 6.43774 22.5034 5.99858 22.5034 5.47159C22.5034 5.04072 22.6244 4.65956 22.8664 4.32812C23.1116 3.99669 23.4447 3.73651 23.8657 3.54758C24.2899 3.35866 24.7705 3.2642 25.3074 3.2642C26.0631 3.2642 26.6564 3.42992 27.0872 3.76136C27.5214 4.0928 27.8297 4.5303 28.012 5.07386ZM33.2369 3.36364V4.35795H29.2796V3.36364H33.2369ZM30.433 1.53409H31.6063V8.8125C31.6063 9.14394 31.6543 9.39252 31.7504 9.55824C31.8499 9.72064 31.9758 9.83002 32.1283 9.88636C32.2841 9.93939 32.4481 9.96591 32.6205 9.96591C32.7497 9.96591 32.8558 9.95928 32.9386 9.94602C33.0215 9.92945 33.0878 9.91619 33.1375 9.90625L33.3761 10.9602C33.2966 10.9901 33.1856 11.0199 33.0431 11.0497C32.9005 11.0829 32.7199 11.0994 32.5011 11.0994C32.1697 11.0994 31.8449 11.0282 31.5267 10.8857C31.2118 10.7431 30.95 10.526 30.7412 10.2344C30.5357 9.94271 30.433 9.57481 30.433 9.13068V1.53409ZM38.1201 11.1591C37.3843 11.1591 36.7496 10.9967 36.216 10.6719C35.6857 10.3438 35.2764 9.88636 34.988 9.29972C34.703 8.70975 34.5605 8.02367 34.5605 7.24148C34.5605 6.45928 34.703 5.76989 34.988 5.1733C35.2764 4.57339 35.6774 4.10606 36.1912 3.77131C36.7082 3.43324 37.3114 3.2642 38.0008 3.2642C38.3985 3.2642 38.7913 3.33049 39.1791 3.46307C39.5669 3.59564 39.9198 3.81108 40.238 4.10938C40.5562 4.40436 40.8098 4.79545 40.9987 5.28267C41.1876 5.76989 41.2821 6.36979 41.2821 7.08239V7.57955H35.3957V6.56534H40.0889C40.0889 6.13447 40.0027 5.75 39.8304 5.41193C39.6613 5.07386 39.4194 4.80705 39.1045 4.61151C38.793 4.41596 38.4251 4.31818 38.0008 4.31818C37.5335 4.31818 37.1291 4.43419 36.7877 4.66619C36.4497 4.89489 36.1895 5.19318 36.0072 5.56108C35.8249 5.92898 35.7338 6.32339 35.7338 6.74432V7.42045C35.7338 7.99716 35.8332 8.48603 36.0321 8.88707C36.2342 9.2848 36.5143 9.58807 36.8723 9.79688C37.2302 10.0024 37.6462 10.1051 38.1201 10.1051C38.4284 10.1051 38.7068 10.062 38.9554 9.97585C39.2073 9.88636 39.4243 9.75379 39.6066 9.57812C39.7889 9.39915 39.9298 9.17708 40.0292 8.91193L41.1627 9.23011C41.0434 9.61458 40.8429 9.95265 40.5612 10.2443C40.2795 10.5327 39.9314 10.758 39.5171 10.9205C39.1028 11.0795 38.6372 11.1591 38.1201 11.1591ZM45.949 11.1591C45.3126 11.1591 44.7508 10.9983 44.2636 10.6768C43.7764 10.352 43.3952 9.89465 43.1202 9.30469C42.8451 8.71141 42.7075 8.01042 42.7075 7.2017C42.7075 6.39962 42.8451 5.7036 43.1202 5.11364C43.3952 4.52367 43.7781 4.06794 44.2686 3.74645C44.7591 3.42495 45.3259 3.2642 45.9689 3.2642C46.466 3.2642 46.8588 3.34706 47.1471 3.51278C47.4388 3.67519 47.6609 3.8608 47.8133 4.0696C47.9691 4.27509 48.0901 4.44413 48.1763 4.5767H48.2757V0.818182H49.449V11H48.3155V9.8267H48.1763C48.0901 9.96591 47.9675 10.1416 47.8084 10.3537C47.6493 10.5625 47.4222 10.7498 47.1273 10.9155C46.8323 11.0779 46.4395 11.1591 45.949 11.1591ZM46.1081 10.1051C46.5787 10.1051 46.9764 9.98248 47.3013 9.73722C47.6261 9.48864 47.873 9.1456 48.042 8.7081C48.2111 8.26728 48.2956 7.75852 48.2956 7.18182C48.2956 6.61174 48.2127 6.11293 48.047 5.68537C47.8813 5.2545 47.636 4.91974 47.3112 4.68111C46.9864 4.43916 46.5854 4.31818 46.1081 4.31818C45.6109 4.31818 45.1966 4.44579 44.8652 4.70099C44.5371 4.95289 44.2901 5.29593 44.1244 5.73011C43.962 6.16098 43.8808 6.64489 43.8808 7.18182C43.8808 7.72538 43.9637 8.21922 44.1294 8.66335C44.2984 9.10417 44.547 9.45549 44.8751 9.71733C45.2066 9.97585 45.6175 10.1051 46.1081 10.1051ZM55.8546 11V0.818182H57.0279V4.5767H57.1273C57.2135 4.44413 57.3328 4.27509 57.4852 4.0696C57.641 3.8608 57.8631 3.67519 58.1514 3.51278C58.4431 3.34706 58.8375 3.2642 59.3347 3.2642C59.9777 3.2642 60.5444 3.42495 61.035 3.74645C61.5255 4.06794 61.9083 4.52367 62.1834 5.11364C62.4585 5.7036 62.596 6.39962 62.596 7.2017C62.596 8.01042 62.4585 8.71141 62.1834 9.30469C61.9083 9.89465 61.5272 10.352 61.0399 10.6768C60.5527 10.9983 59.9909 11.1591 59.3546 11.1591C58.864 11.1591 58.4713 11.0779 58.1763 10.9155C57.8813 10.7498 57.6543 10.5625 57.4952 10.3537C57.3361 10.1416 57.2135 9.96591 57.1273 9.8267H56.9881V11H55.8546ZM57.008 7.18182C57.008 7.75852 57.0925 8.26728 57.2615 8.7081C57.4306 9.1456 57.6775 9.48864 58.0023 9.73722C58.3271 9.98248 58.7248 10.1051 59.1955 10.1051C59.686 10.1051 60.0953 9.97585 60.4235 9.71733C60.7549 9.45549 61.0035 9.10417 61.1692 8.66335C61.3382 8.21922 61.4227 7.72538 61.4227 7.18182C61.4227 6.64489 61.3399 6.16098 61.1742 5.73011C61.0118 5.29593 60.7648 4.95289 60.4334 4.70099C60.1053 4.44579 59.6926 4.31818 59.1955 4.31818C58.7182 4.31818 58.3172 4.43916 57.9924 4.68111C57.6675 4.91974 57.4223 5.2545 57.2566 5.68537C57.0908 6.11293 57.008 6.61174 57.008 7.18182ZM64.8716 13.8636C64.6728 13.8636 64.4954 13.8471 64.3397 13.8139C64.1839 13.7841 64.0762 13.7543 64.0165 13.7244L64.3148 12.6903C64.5999 12.7633 64.8517 12.7898 65.0705 12.7699C65.2892 12.75 65.4831 12.6522 65.6522 12.4766C65.8245 12.3042 65.982 12.0241 66.1245 11.6364L66.3432 11.0398L63.5194 3.36364H64.7921L66.9 9.44886H66.9796L69.0875 3.36364H70.3603L67.1188 12.1136C66.973 12.508 66.7923 12.8345 66.5769 13.093C66.3615 13.3549 66.1112 13.5488 65.8262 13.6747C65.5445 13.8007 65.2263 13.8636 64.8716 13.8636ZM79.1646 3.36364V4.35795H75.2073V3.36364H79.1646ZM76.3607 1.53409H77.534V8.8125C77.534 9.14394 77.582 9.39252 77.6781 9.55824C77.7776 9.72064 77.9035 9.83002 78.056 9.88636C78.2118 9.93939 78.3758 9.96591 78.5482 9.96591C78.6774 9.96591 78.7835 9.95928 78.8663 9.94602C78.9492 9.92945 79.0155 9.91619 79.0652 9.90625L79.3038 10.9602C79.2243 10.9901 79.1133 11.0199 78.9707 11.0497C78.8282 11.0829 78.6476 11.0994 78.4288 11.0994C78.0974 11.0994 77.7726 11.0282 77.4544 10.8857C77.1395 10.7431 76.8777 10.526 76.6689 10.2344C76.4634 9.94271 76.3607 9.57481 76.3607 9.13068V1.53409ZM83.9484 11.1591C83.259 11.1591 82.6541 10.995 82.1338 10.6669C81.6167 10.3388 81.2124 9.87973 80.9207 9.28977C80.6323 8.69981 80.4882 8.01042 80.4882 7.22159C80.4882 6.42614 80.6323 5.73177 80.9207 5.13849C81.2124 4.54522 81.6167 4.08452 82.1338 3.75639C82.6541 3.42827 83.259 3.2642 83.9484 3.2642C84.6378 3.2642 85.241 3.42827 85.7581 3.75639C86.2784 4.08452 86.6828 4.54522 86.9711 5.13849C87.2628 5.73177 87.4086 6.42614 87.4086 7.22159C87.4086 8.01042 87.2628 8.69981 86.9711 9.28977C86.6828 9.87973 86.2784 10.3388 85.7581 10.6669C85.241 10.995 84.6378 11.1591 83.9484 11.1591ZM83.9484 10.1051C84.4721 10.1051 84.9029 9.97088 85.241 9.70241C85.5791 9.43395 85.8293 9.08097 85.9917 8.64347C86.1541 8.20597 86.2353 7.73201 86.2353 7.22159C86.2353 6.71117 86.1541 6.23556 85.9917 5.79474C85.8293 5.35393 85.5791 4.99763 85.241 4.72585C84.9029 4.45407 84.4721 4.31818 83.9484 4.31818C83.4247 4.31818 82.9939 4.45407 82.6558 4.72585C82.3177 4.99763 82.0675 5.35393 81.9051 5.79474C81.7427 6.23556 81.6615 6.71117 81.6615 7.22159C81.6615 7.73201 81.7427 8.20597 81.9051 8.64347C82.0675 9.08097 82.3177 9.43395 82.6558 9.70241C82.9939 9.97088 83.4247 10.1051 83.9484 10.1051ZM89.1982 13.8636V3.36364H90.3318V4.5767H90.471C90.5571 4.44413 90.6765 4.27509 90.8289 4.0696C90.9847 3.8608 91.2068 3.67519 91.4951 3.51278C91.7868 3.34706 92.1812 3.2642 92.6784 3.2642C93.3213 3.2642 93.8881 3.42495 94.3786 3.74645C94.8692 4.06794 95.252 4.52367 95.5271 5.11364C95.8022 5.7036 95.9397 6.39962 95.9397 7.2017C95.9397 8.01042 95.8022 8.71141 95.5271 9.30469C95.252 9.89465 94.8708 10.352 94.3836 10.6768C93.8964 10.9983 93.3346 11.1591 92.6982 11.1591C92.2077 11.1591 91.815 11.0779 91.52 10.9155C91.225 10.7498 90.998 10.5625 90.8389 10.3537C90.6798 10.1416 90.5571 9.96591 90.471 9.8267H90.3715V13.8636H89.1982ZM90.3516 7.18182C90.3516 7.75852 90.4362 8.26728 90.6052 8.7081C90.7742 9.1456 91.0212 9.48864 91.346 9.73722C91.6708 9.98248 92.0685 10.1051 92.5391 10.1051C93.0297 10.1051 93.439 9.97585 93.7671 9.71733C94.0986 9.45549 94.3471 9.10417 94.5129 8.66335C94.6819 8.21922 94.7664 7.72538 94.7664 7.18182C94.7664 6.64489 94.6836 6.16098 94.5178 5.73011C94.3554 5.29593 94.1085 4.95289 93.7771 4.70099C93.4489 4.44579 93.0363 4.31818 92.5391 4.31818C92.0619 4.31818 91.6608 4.43916 91.336 4.68111C91.0112 4.91974 90.7659 5.2545 90.6002 5.68537C90.4345 6.11293 90.3516 6.61174 90.3516 7.18182ZM101.664 11V3.36364H102.837V11H101.664ZM102.261 2.09091C102.032 2.09091 101.835 2.01302 101.669 1.85724C101.507 1.70147 101.426 1.5142 101.426 1.29545C101.426 1.0767 101.507 0.889441 101.669 0.733664C101.835 0.577888 102.032 0.5 102.261 0.5C102.489 0.5 102.685 0.577888 102.847 0.733664C103.013 0.889441 103.096 1.0767 103.096 1.29545C103.096 1.5142 103.013 1.70147 102.847 1.85724C102.685 2.01302 102.489 2.09091 102.261 2.09091ZM106.158 6.40625V11H104.985V3.36364H106.119V4.55682H106.218C106.397 4.16903 106.669 3.85748 107.033 3.62216C107.398 3.38352 107.869 3.2642 108.445 3.2642C108.962 3.2642 109.415 3.37027 109.803 3.58239C110.19 3.79119 110.492 4.10938 110.707 4.53693C110.923 4.96117 111.031 5.49811 111.031 6.14773V11H109.857V6.22727C109.857 5.62737 109.701 5.16004 109.39 4.82528C109.078 4.48722 108.651 4.31818 108.107 4.31818C107.733 4.31818 107.398 4.39938 107.103 4.56179C106.811 4.72419 106.581 4.96117 106.412 5.27273C106.243 5.58428 106.158 5.96212 106.158 6.40625ZM114.346 6.40625V11H113.173V3.36364H114.307V4.55682H114.406C114.585 4.16903 114.857 3.85748 115.221 3.62216C115.586 3.38352 116.057 3.2642 116.633 3.2642C117.15 3.2642 117.603 3.37027 117.991 3.58239C118.378 3.79119 118.68 4.10938 118.895 4.53693C119.111 4.96117 119.219 5.49811 119.219 6.14773V11H118.045V6.22727C118.045 5.62737 117.889 5.16004 117.578 4.82528C117.266 4.48722 116.839 4.31818 116.295 4.31818C115.921 4.31818 115.586 4.39938 115.291 4.56179C114.999 4.72419 114.769 4.96117 114.6 5.27273C114.431 5.58428 114.346 5.96212 114.346 6.40625ZM124.463 11.1591C123.774 11.1591 123.169 10.995 122.649 10.6669C122.132 10.3388 121.727 9.87973 121.436 9.28977C121.147 8.69981 121.003 8.01042 121.003 7.22159C121.003 6.42614 121.147 5.73177 121.436 5.13849C121.727 4.54522 122.132 4.08452 122.649 3.75639C123.169 3.42827 123.774 3.2642 124.463 3.2642C125.153 3.2642 125.756 3.42827 126.273 3.75639C126.793 4.08452 127.198 4.54522 127.486 5.13849C127.778 5.73177 127.924 6.42614 127.924 7.22159C127.924 8.01042 127.778 8.69981 127.486 9.28977C127.198 9.87973 126.793 10.3388 126.273 10.6669C125.756 10.995 125.153 11.1591 124.463 11.1591ZM124.463 10.1051C124.987 10.1051 125.418 9.97088 125.756 9.70241C126.094 9.43395 126.344 9.08097 126.507 8.64347C126.669 8.20597 126.75 7.73201 126.75 7.22159C126.75 6.71117 126.669 6.23556 126.507 5.79474C126.344 5.35393 126.094 4.99763 125.756 4.72585C125.418 4.45407 124.987 4.31818 124.463 4.31818C123.94 4.31818 123.509 4.45407 123.171 4.72585C122.833 4.99763 122.583 5.35393 122.42 5.79474C122.258 6.23556 122.177 6.71117 122.177 7.22159C122.177 7.73201 122.258 8.20597 122.42 8.64347C122.583 9.08097 122.833 9.43395 123.171 9.70241C123.509 9.97088 123.94 10.1051 124.463 10.1051ZM135.684 3.36364L132.86 11H131.667L128.843 3.36364H130.116L132.224 9.44886H132.303L134.411 3.36364H135.684ZM139.246 11.179C138.762 11.179 138.323 11.0878 137.929 10.9055C137.534 10.7199 137.221 10.4531 136.989 10.1051C136.757 9.75379 136.641 9.32955 136.641 8.83239C136.641 8.39489 136.727 8.04025 136.9 7.76847C137.072 7.49337 137.302 7.27794 137.591 7.12216C137.879 6.96638 138.197 6.85038 138.545 6.77415C138.896 6.6946 139.249 6.63163 139.604 6.58523C140.068 6.52557 140.444 6.48082 140.733 6.45099C141.024 6.41785 141.236 6.36316 141.369 6.28693C141.505 6.2107 141.573 6.07812 141.573 5.8892V5.84943C141.573 5.3589 141.439 4.97775 141.17 4.70597C140.905 4.43419 140.502 4.2983 139.962 4.2983C139.402 4.2983 138.963 4.42093 138.645 4.66619C138.326 4.91146 138.103 5.1733 137.973 5.4517L136.86 5.05398C137.059 4.58996 137.324 4.22869 137.655 3.97017C137.99 3.70833 138.355 3.52604 138.749 3.4233C139.147 3.31723 139.538 3.2642 139.922 3.2642C140.168 3.2642 140.449 3.29403 140.767 3.35369C141.089 3.41004 141.399 3.5277 141.697 3.70668C141.999 3.88565 142.249 4.15578 142.448 4.51705C142.647 4.87831 142.746 5.36222 142.746 5.96875V11H141.573V9.96591H141.513C141.434 10.1316 141.301 10.3089 141.115 10.4979C140.93 10.6868 140.683 10.8475 140.375 10.9801C140.066 11.1127 139.69 11.179 139.246 11.179ZM139.425 10.125C139.889 10.125 140.28 10.0339 140.598 9.85156C140.92 9.66927 141.162 9.43395 141.324 9.1456C141.49 8.85724 141.573 8.55398 141.573 8.2358V7.16193C141.523 7.22159 141.414 7.27628 141.245 7.32599C141.079 7.3724 140.887 7.41383 140.668 7.45028C140.453 7.48343 140.242 7.51326 140.037 7.53977C139.834 7.56297 139.67 7.58286 139.544 7.59943C139.24 7.6392 138.954 7.70384 138.689 7.79332C138.427 7.8795 138.215 8.01042 138.053 8.18608C137.894 8.35843 137.814 8.59375 137.814 8.89205C137.814 9.29972 137.965 9.60795 138.267 9.81676C138.572 10.0223 138.958 10.125 139.425 10.125ZM148.207 3.36364V4.35795H144.25V3.36364H148.207ZM145.403 1.53409H146.577V8.8125C146.577 9.14394 146.625 9.39252 146.721 9.55824C146.82 9.72064 146.946 9.83002 147.099 9.88636C147.254 9.93939 147.418 9.96591 147.591 9.96591C147.72 9.96591 147.826 9.95928 147.909 9.94602C147.992 9.92945 148.058 9.91619 148.108 9.90625L148.346 10.9602C148.267 10.9901 148.156 11.0199 148.013 11.0497C147.871 11.0829 147.69 11.0994 147.471 11.0994C147.14 11.0994 146.815 11.0282 146.497 10.8857C146.182 10.7431 145.92 10.526 145.712 10.2344C145.506 9.94271 145.403 9.57481 145.403 9.13068V1.53409ZM149.971 11V3.36364H151.144V11H149.971ZM150.567 2.09091C150.339 2.09091 150.141 2.01302 149.976 1.85724C149.813 1.70147 149.732 1.5142 149.732 1.29545C149.732 1.0767 149.813 0.889441 149.976 0.733664C150.141 0.577888 150.339 0.5 150.567 0.5C150.796 0.5 150.992 0.577888 151.154 0.733664C151.32 0.889441 151.403 1.0767 151.403 1.29545C151.403 1.5142 151.32 1.70147 151.154 1.85724C150.992 2.01302 150.796 2.09091 150.567 2.09091ZM159.536 3.36364L156.712 11H155.519L152.695 3.36364H153.968L156.076 9.44886H156.155L158.263 3.36364H159.536ZM164.011 11.1591C163.276 11.1591 162.641 10.9967 162.107 10.6719C161.577 10.3438 161.168 9.88636 160.879 9.29972C160.594 8.70975 160.452 8.02367 160.452 7.24148C160.452 6.45928 160.594 5.76989 160.879 5.1733C161.168 4.57339 161.569 4.10606 162.083 3.77131C162.6 3.43324 163.203 3.2642 163.892 3.2642C164.29 3.2642 164.683 3.33049 165.07 3.46307C165.458 3.59564 165.811 3.81108 166.129 4.10938C166.448 4.40436 166.701 4.79545 166.89 5.28267C167.079 5.76989 167.173 6.36979 167.173 7.08239V7.57955H161.287V6.56534H165.98C165.98 6.13447 165.894 5.75 165.722 5.41193C165.553 5.07386 165.311 4.80705 164.996 4.61151C164.684 4.41596 164.316 4.31818 163.892 4.31818C163.425 4.31818 163.02 4.43419 162.679 4.66619C162.341 4.89489 162.081 5.19318 161.899 5.56108C161.716 5.92898 161.625 6.32339 161.625 6.74432V7.42045C161.625 7.99716 161.725 8.48603 161.923 8.88707C162.126 9.2848 162.406 9.58807 162.764 9.79688C163.122 10.0024 163.538 10.1051 164.011 10.1051C164.32 10.1051 164.598 10.062 164.847 9.97585C165.099 9.88636 165.316 9.75379 165.498 9.57812C165.68 9.39915 165.821 9.17708 165.921 8.91193L167.054 9.23011C166.935 9.61458 166.734 9.95265 166.453 10.2443C166.171 10.5327 165.823 10.758 165.409 10.9205C164.994 11.0795 164.529 11.1591 164.011 11.1591ZM176.214 3.36364V4.35795H172.257V3.36364H176.214ZM173.41 1.53409H174.583V8.8125C174.583 9.14394 174.631 9.39252 174.727 9.55824C174.827 9.72064 174.953 9.83002 175.105 9.88636C175.261 9.93939 175.425 9.96591 175.597 9.96591C175.727 9.96591 175.833 9.95928 175.916 9.94602C175.999 9.92945 176.065 9.91619 176.115 9.90625L176.353 10.9602C176.274 10.9901 176.163 11.0199 176.02 11.0497C175.878 11.0829 175.697 11.0994 175.478 11.0994C175.147 11.0994 174.822 11.0282 174.504 10.8857C174.189 10.7431 173.927 10.526 173.718 10.2344C173.513 9.94271 173.41 9.57481 173.41 9.13068V1.53409ZM181.097 11.1591C180.361 11.1591 179.727 10.9967 179.193 10.6719C178.663 10.3438 178.253 9.88636 177.965 9.29972C177.68 8.70975 177.537 8.02367 177.537 7.24148C177.537 6.45928 177.68 5.76989 177.965 5.1733C178.253 4.57339 178.654 4.10606 179.168 3.77131C179.685 3.43324 180.288 3.2642 180.978 3.2642C181.376 3.2642 181.768 3.33049 182.156 3.46307C182.544 3.59564 182.897 3.81108 183.215 4.10938C183.533 4.40436 183.787 4.79545 183.976 5.28267C184.165 5.76989 184.259 6.36979 184.259 7.08239V7.57955H178.373V6.56534H183.066C183.066 6.13447 182.98 5.75 182.807 5.41193C182.638 5.07386 182.396 4.80705 182.082 4.61151C181.77 4.41596 181.402 4.31818 180.978 4.31818C180.51 4.31818 180.106 4.43419 179.765 4.66619C179.427 4.89489 179.167 5.19318 178.984 5.56108C178.802 5.92898 178.711 6.32339 178.711 6.74432V7.42045C178.711 7.99716 178.81 8.48603 179.009 8.88707C179.211 9.2848 179.491 9.58807 179.849 9.79688C180.207 10.0024 180.623 10.1051 181.097 10.1051C181.405 10.1051 181.684 10.062 181.932 9.97585C182.184 9.88636 182.401 9.75379 182.584 9.57812C182.766 9.39915 182.907 9.17708 183.006 8.91193L184.14 9.23011C184.02 9.61458 183.82 9.95265 183.538 10.2443C183.256 10.5327 182.908 10.758 182.494 10.9205C182.08 11.0795 181.614 11.1591 181.097 11.1591ZM188.29 11.179C187.806 11.179 187.367 11.0878 186.972 10.9055C186.578 10.7199 186.265 10.4531 186.033 10.1051C185.801 9.75379 185.685 9.32955 185.685 8.83239C185.685 8.39489 185.771 8.04025 185.943 7.76847C186.115 7.49337 186.346 7.27794 186.634 7.12216C186.922 6.96638 187.241 6.85038 187.589 6.77415C187.94 6.6946 188.293 6.63163 188.648 6.58523C189.112 6.52557 189.488 6.48082 189.776 6.45099C190.068 6.41785 190.28 6.36316 190.413 6.28693C190.548 6.2107 190.616 6.07812 190.616 5.8892V5.84943C190.616 5.3589 190.482 4.97775 190.214 4.70597C189.948 4.43419 189.546 4.2983 189.006 4.2983C188.445 4.2983 188.006 4.42093 187.688 4.66619C187.37 4.91146 187.146 5.1733 187.017 5.4517L185.903 5.05398C186.102 4.58996 186.367 4.22869 186.699 3.97017C187.033 3.70833 187.398 3.52604 187.792 3.4233C188.19 3.31723 188.581 3.2642 188.966 3.2642C189.211 3.2642 189.493 3.29403 189.811 3.35369C190.132 3.41004 190.442 3.5277 190.741 3.70668C191.042 3.88565 191.292 4.15578 191.491 4.51705C191.69 4.87831 191.79 5.36222 191.79 5.96875V11H190.616V9.96591H190.557C190.477 10.1316 190.345 10.3089 190.159 10.4979C189.973 10.6868 189.726 10.8475 189.418 10.9801C189.11 11.1127 188.734 11.179 188.29 11.179ZM188.469 10.125C188.933 10.125 189.324 10.0339 189.642 9.85156C189.963 9.66927 190.205 9.43395 190.368 9.1456C190.533 8.85724 190.616 8.55398 190.616 8.2358V7.16193C190.567 7.22159 190.457 7.27628 190.288 7.32599C190.122 7.3724 189.93 7.41383 189.712 7.45028C189.496 7.48343 189.286 7.51326 189.08 7.53977C188.878 7.56297 188.714 7.58286 188.588 7.59943C188.283 7.6392 187.998 7.70384 187.733 7.79332C187.471 7.8795 187.259 8.01042 187.096 8.18608C186.937 8.35843 186.858 8.59375 186.858 8.89205C186.858 9.29972 187.009 9.60795 187.31 9.81676C187.615 10.0223 188.001 10.125 188.469 10.125ZM193.93 11V3.36364H195.063V4.55682H195.163C195.322 4.14915 195.579 3.83262 195.933 3.60724C196.288 3.37855 196.714 3.2642 197.211 3.2642C197.715 3.2642 198.134 3.37855 198.469 3.60724C198.807 3.83262 199.07 4.14915 199.259 4.55682H199.339C199.534 4.16241 199.828 3.84919 200.219 3.61719C200.61 3.38187 201.079 3.2642 201.626 3.2642C202.309 3.2642 202.867 3.47798 203.301 3.90554C203.735 4.32978 203.952 4.991 203.952 5.8892V11H202.779V5.8892C202.779 5.32576 202.625 4.92306 202.317 4.68111C202.009 4.43916 201.646 4.31818 201.228 4.31818C200.691 4.31818 200.275 4.48059 199.98 4.8054C199.685 5.12689 199.538 5.53456 199.538 6.02841V11H198.345V5.76989C198.345 5.3357 198.204 4.98603 197.922 4.72088C197.64 4.45241 197.277 4.31818 196.833 4.31818C196.528 4.31818 196.243 4.39938 195.978 4.56179C195.716 4.72419 195.504 4.94957 195.342 5.23793C195.183 5.52296 195.103 5.85275 195.103 6.22727V11H193.93ZM211.505 5.07386L210.451 5.37216C210.385 5.1965 210.287 5.0258 210.158 4.86009C210.032 4.69105 209.86 4.55185 209.641 4.44247C209.422 4.3331 209.142 4.27841 208.801 4.27841C208.334 4.27841 207.944 4.38613 207.633 4.60156C207.324 4.81368 207.17 5.08381 207.17 5.41193C207.17 5.7036 207.276 5.93395 207.488 6.10298C207.7 6.27202 208.032 6.41288 208.483 6.52557L209.616 6.80398C210.299 6.9697 210.808 7.22325 211.142 7.56463C211.477 7.9027 211.645 8.33854 211.645 8.87216C211.645 9.30966 211.519 9.70076 211.267 10.0455C211.018 10.3902 210.67 10.6619 210.223 10.8608C209.775 11.0597 209.255 11.1591 208.662 11.1591C207.883 11.1591 207.238 10.9901 206.728 10.652C206.217 10.3139 205.894 9.82008 205.758 9.17045L206.872 8.89205C206.978 9.30303 207.178 9.61127 207.473 9.81676C207.772 10.0223 208.161 10.125 208.642 10.125C209.189 10.125 209.623 10.009 209.944 9.77699C210.269 9.54167 210.432 9.25994 210.432 8.93182C210.432 8.66667 210.339 8.4446 210.153 8.26562C209.968 8.08333 209.682 7.94744 209.298 7.85795L208.025 7.55966C207.326 7.39394 206.812 7.13707 206.484 6.78906C206.159 6.43774 205.997 5.99858 205.997 5.47159C205.997 5.04072 206.118 4.65956 206.36 4.32812C206.605 3.99669 206.938 3.73651 207.359 3.54758C207.783 3.35866 208.264 3.2642 208.801 3.2642C209.557 3.2642 210.15 3.42992 210.581 3.76136C211.015 4.0928 211.323 4.5303 211.505 5.07386ZM214.264 11.0795C214.019 11.0795 213.809 10.9917 213.633 10.8161C213.457 10.6404 213.37 10.4299 213.37 10.1847C213.37 9.93939 213.457 9.72893 213.633 9.55327C213.809 9.3776 214.019 9.28977 214.264 9.28977C214.51 9.28977 214.72 9.3776 214.896 9.55327C215.072 9.72893 215.159 9.93939 215.159 10.1847C215.159 10.3471 215.118 10.4962 215.035 10.6321C214.956 10.768 214.848 10.8774 214.712 10.9602C214.579 11.0398 214.43 11.0795 214.264 11.0795ZM214.264 5.41193C214.019 5.41193 213.809 5.3241 213.633 5.14844C213.457 4.97277 213.37 4.76231 213.37 4.51705C213.37 4.27178 213.457 4.06132 213.633 3.88565C213.809 3.70999 214.019 3.62216 214.264 3.62216C214.51 3.62216 214.72 3.70999 214.896 3.88565C215.072 4.06132 215.159 4.27178 215.159 4.51705C215.159 4.67945 215.118 4.8286 215.035 4.96449C214.956 5.10038 214.848 5.20975 214.712 5.29261C214.579 5.37216 214.43 5.41193 214.264 5.41193Z" fill="white"/>
</svg>
